<?xml version="1.0" encoding="UTF-8"?>


<svg width="120px" height="118px" viewBox="0 0 120 118" version="1.1" xmlns="http://www.w3.org/2000/svg" xmlns:xlink="http://www.w3.org/1999/xlink">
    <defs>
        <filter x="-1.0%" y="-14.0%" width="102.2%" height="132.0%" filterUnits="objectBoundingBox" id="filter-945z9ycnh2-1">
            <feOffset dx="0" dy="2" in="SourceAlpha" result="shadowOffsetOuter1"></feOffset>
            <feGaussianBlur stdDeviation="2" in="shadowOffsetOuter1" result="shadowBlurOuter1"></feGaussianBlur>
            <feColorMatrix values="0 0 0 0 0   0 0 0 0 0   0 0 0 0 0  0 0 0 0.5 0" type="matrix" in="shadowBlurOuter1" result="shadowMatrixOuter1"></feColorMatrix>
            <feMerge>
                <feMergeNode in="shadowMatrixOuter1"></feMergeNode>
                <feMergeNode in="SourceGraphic"></feMergeNode>
            </feMerge>
        </filter>
    </defs>
    <g id="首页" stroke="none" stroke-width="1" fill="none" fill-rule="evenodd">
        <g id="顶部" filter="url(#filter-945z9ycnh2-1)" transform="translate(-15.000000, 9.000000)">
            <g id="Logo" transform="translate(24.218750, 0.792327)">
                <path d="M32.78125,48.2872464 C34.753352,49.7687529 36.7070369,50.2625884 38.6423045,49.7687529 C41.545206,49.0279997 44.5037975,39.1569301 46.9313598,40.7663039 C49.3589222,42.3756778 50.7235489,45.8930722 52.0719511,46.5051634 C53.4203532,47.1172546 54.885836,46.5051634 55.6711981,46.5051634 C56.4565601,46.5051634 60.7975911,35.9471507 62.9823048,35.9471507 C65.1670185,35.9471507 68.8044154,46.5051634 68.8044154,46.5051634 C68.8044154,46.5051634 73.0767672,47.8001959 73.8634447,46.5051634 C74.6501222,45.2101309 77.9674107,38.659634 80.073549,38.659634 C82.1796873,38.659634 84.1034077,47.6792591 85.2018621,48.2872464 C86.3003165,48.8952338 90.134602,48.2872464 90.7502627,48.2872464 C91.3659234,48.2872464 82.6331012,30.424429 80.073549,30.424429 C77.5139968,30.424429 73.8200327,40.7663039 71.3122241,40.7663039 C68.8044154,40.7663039 66.6908225,22.7547867 63.6642627,23.8856445 C61.6465561,24.6395497 58.1563507,29.8344597 53.1936462,39.4703746 L46.1740621,33.4445273 L32.78125,48.2872464 Z" id="路径-2" fill="#67BE6C"></path>
                <path d="M27.2099937,52.4660557 C48.7103546,54.2305057 68.8062506,52.1705306 90.5935269,52.52941 C92.8888322,52.5672182 96.0794862,51.4196763 97.4481168,53.1587842 L98.4472844,53.8089987 C98.6475426,54.0634652 98.9310759,54.5151841 98.6866959,54.7326367 C98.2326789,55.1366272 97.5056811,55.1870766 96.8818335,55.2019582 C87.7595197,55.4195666 78.6295749,55.2132137 69.5072041,55.4286996 C63.3611708,55.5738794 67.4364095,57.2403359 58.622815,58.3400766 C54.0316808,58.912948 49.3546826,58.3278993 44.7320888,58.5926599 C41.7568896,58.7630654 38.837776,59.5257778 35.8597282,59.6438399 C31.0338803,59.8351565 26.6094046,57.6622729 26.7863855,52.8599357 L27.2099937,52.4660557 Z" id="路径-3" fill="#7C9EC3"></path>
                <path d="M73.78125,55.3211304 C74.1682373,55.5966952 76.8071292,57.3122994 77.7744247,57.5886029 C78.5483993,57.8641677 78.9353867,58.2781305 79.322374,58.5529565 C79.322374,59.51731 78.7420659,60.7572283 77.9680912,62.1348059 C77.5811039,62.9615002 76.9997583,63.5123834 76.6138085,64.063513 C76.2473093,64.5539215 75.9239099,65.0600556 75.6454756,65.578996 C74.0258801,67.974118 72.150087,70.2770307 70.034678,72.4673763 C67.7041772,74.7680555 65.0468132,76.891532 62.1047231,78.8041346 C59.0091703,80.7328417 55.9143091,82.385984 52.4310773,83.4882431 C49.1132565,84.7851773 45.3810589,85.4495591 41.5964695,85.4169502 C33.4693897,85.4169502 27.4729881,83.6259023 23.6034606,79.7684882 C19.5395749,76.0487332 17.6060215,70.8134952 17.6060215,63.9251149 C17.568975,57.3681854 18.345857,50.8217546 19.9275997,44.3622331 C21.4753185,38.3004649 24.1843451,32.1009555 28.0546795,25.7637047 C29.0230124,24.1105624 30.5699243,22.3195146 32.5045151,20.3908075 C34.2990144,18.3700735 36.4441927,16.5185346 38.8892873,14.8800047 C41.2666703,13.1985028 44.0113359,11.8027191 47.0163671,10.7470258 C49.9185992,9.64476673 53.014152,8.95597795 56.3030256,8.95597795 C60.9465278,8.95597795 64.6223887,9.78267224 67.3309542,11.1602498 C69.8461989,12.6757329 71.9744563,14.0533104 73.9090472,15.4311342 L76.8112792,17.9109709 C77.6309907,18.8604143 78.6787997,19.6998105 79.9068321,20.3908075 C81.4545508,21.7685492 83.5828083,22.4574201 86.2916043,22.4574201 C88.273039,22.4849763 90.2000622,21.9949339 91.7087353,21.0798425 C93.063018,20.2531482 93.8369927,19.0132299 93.8369927,17.4977468 C93.8269741,16.9657367 93.6272912,16.4442619 93.2566846,15.9822638 C92.8696973,15.4311342 92.6763765,15.0179102 92.2883517,14.4667807 C88.4207933,10.036 83.0252532,6.38368846 76.6151918,3.85741417 C69.8437781,1.37757756 62.8786978,0 55.5266301,0 C49.7737092,0.00666734148 44.1166076,1.04931989 39.0815706,3.03096614 C34.0058639,5.28249029 29.4394704,8.06954884 25.5383973,11.296924 C21.2818825,14.6034549 17.7993423,18.4608691 14.7037895,22.593848 C11.511638,26.8437228 8.79421913,31.2659237 6.57670965,35.8194791 C4.41330273,40.033082 2.73157691,44.364275 1.54794933,48.7707768 C0.538568116,52.4938266 0.0203288975,56.275933 0,60.0677008 C0,65.027374 0.386987332,69.8491417 1.54794933,74.3955909 C2.70891133,78.9420401 5.22208107,82.9371135 9.28665848,86.2436445 C12.380828,88.9990458 16.8320469,91.2033177 22.2495237,92.8557212 C27.6670005,94.5081248 34.2447477,95.3355578 41.9838027,95.3355578 C46.1949946,95.3289281 50.3538842,94.6708468 54.1726932,93.4068507 C58.2355414,92.3045917 62.1050689,90.5137901 65.9745964,88.309272 C69.8375388,86.0132931 73.3404454,83.426562 76.4222169,80.5941974 C79.5784429,77.6308385 82.3015859,74.4457844 84.5492967,71.0885675 C84.1438703,73.1886794 83.9497092,75.3067364 83.968297,77.4265571 C83.6574407,79.7156724 83.5282395,82.0154551 83.5813096,84.3149374 C83.5813096,87.207998 83.7746304,89.5501754 84.5496426,91.3409769 C85.1299506,93.269684 85.9039253,94.6475078 87.0648873,95.6118614 C87.7284772,96.5689103 88.8164156,97.3436062 90.1604401,97.8161332 C91.3214021,98.2293572 92.2886975,98.5056608 93.4496595,98.5056608 C95.4000801,98.5392539 97.3091582,98.1022882 98.8667905,97.2657425 C100.29437,96.3019437 101.069847,94.9470179 100.995048,93.5472189 C100.995048,93.2716541 100.801727,92.8576913 100.801727,92.3073006 L100.221419,90.6541582 L99.4474444,88.7254511 L98.8671364,87.0723088 C98.0668653,84.7140798 97.4851875,82.3209374 97.1258663,79.9083637 C96.7388789,77.4285271 96.7388789,75.086596 96.7388789,72.6067594 C96.6803931,71.0403925 96.8098592,69.4733299 97.1258663,67.922651 L98.2857908,60.8943951 L98.2857908,58.4145584 C98.2857908,58.1389937 97.78125,57.4782282 97.78125,56.7591956 L97.78125,55.3211304 L73.78125,55.3211304 Z" id="路径" fill="#CB0013" fill-rule="nonzero"></path>
            </g>
        </g>
    </g>
</svg>


